<?xml version="1.0" standalone="no"?>
<!DOCTYPE svg PUBLIC "-//W3C//DTD SVG 20010904//EN"
 "http://www.w3.org/TR/2001/REC-SVG-20010904/DTD/svg10.dtd">
<svg version="1.0" xmlns="http://www.w3.org/2000/svg"
 width="700.000000pt" height="700.000000pt" viewBox="0 0 700.000000 700.000000"
 preserveAspectRatio="xMidYMid meet">
<metadata>
Created by potrace 1.14, written by Peter Selinger 2001-2017
</metadata>
<g transform="translate(0.000000,700.000000) scale(0.100000,-0.100000)"
fill="#000000" stroke="none">
<path d="M1710 6623 c0 -3 8 -12 18 -19 15 -11 9 -16 -52 -45 l-68 -32 -117 9
c-64 4 -165 8 -226 8 -107 1 -112 0 -187 -36 -139 -69 -241 -199 -283 -363
-23 -91 -18 -305 7 -305 6 0 7 8 3 18 -3 9 -8 62 -11 118 -7 170 44 311 150
419 118 119 220 147 448 122 180 -20 254 -10 331 45 23 17 46 22 106 23 46 1
92 8 115 18 54 24 41 29 -24 12 -62 -17 -121 -19 -135 -6 -12 10 -75 23 -75
14z"/>
<path d="M2500 6621 c0 -5 33 -19 73 -32 123 -41 372 -28 489 25 l33 16 -35
-6 c-19 -3 -64 -12 -100 -21 -100 -25 -287 -22 -370 5 -71 24 -90 27 -90 13z"/>
<path d="M4202 6594 c-17 -59 -52 -87 -106 -87 -48 0 -89 20 -107 55 -10 18
-8 24 11 40 14 12 17 18 8 18 -42 0 -51 -64 -15 -98 46 -44 128 -48 178 -9 24
18 51 76 47 100 -3 17 -7 13 -16 -19z"/>
<path d="M3340 6600 c25 -25 30 -25 30 -2 0 12 -8 18 -25 20 -25 2 -25 2 -5
-18z"/>
<path d="M4489 6565 c58 -62 79 -103 83 -166 l3 -44 -35 3 -35 2 33 -15 c27
-12 31 -18 23 -32 -13 -26 -42 -50 -66 -56 -19 -4 -19 -5 1 -6 13 -1 34 13 53
34 17 19 36 35 44 35 23 0 72 -56 121 -139 54 -92 108 -143 175 -167 25 -9 65
-22 88 -30 136 -48 543 -349 628 -464 31 -43 65 -121 65 -152 0 -4 -14 -8 -31
-8 -62 0 -132 -108 -83 -127 24 -9 80 22 100 57 22 36 39 35 67 -1 54 -73 25
-187 -90 -355 -169 -247 -203 -319 -203 -424 0 -164 177 -426 306 -455 23 -6
20 -2 -14 15 -64 34 -160 144 -217 251 l-50 94 0 100 c0 91 3 106 31 165 17
36 68 117 113 180 112 157 152 240 159 328 5 77 -10 120 -53 148 -19 12 -25
25 -25 53 0 20 -11 60 -25 89 -46 100 -267 292 -498 434 -50 31 -99 63 -108
71 -21 19 -86 40 -98 33 -15 -9 -73 15 -124 51 -34 25 -64 63 -107 133 -37 59
-74 107 -95 121 -29 20 -35 30 -35 61 0 61 -35 137 -87 190 -66 67 -78 61 -14
-7z m1171 -1241 c0 -23 -55 -74 -79 -74 -28 0 -28 36 1 67 25 27 78 32 78 7z"/>
<path d="M2440 6580 c-19 -11 -31 -19 -27 -20 11 0 67 29 67 35 0 7 -1 7 -40
-15z"/>
<path d="M3199 6535 c-14 -31 -14 -33 6 -51 20 -19 21 -19 36 12 14 30 14 33
-5 51 -21 20 -21 20 -37 -12z m36 -15 c3 -6 -1 -13 -10 -16 -19 -8 -30 0 -20
15 8 14 22 14 30 1z"/>
<path d="M4681 6554 c-1 -29 45 -117 76 -145 21 -19 19 -13 -11 29 -21 29 -44
72 -52 95 -7 23 -13 33 -13 21z"/>
<path d="M2290 6543 c-239 -12 -533 -51 -684 -89 -112 -28 -220 -76 -286 -127
-25 -19 -61 -38 -80 -42 -41 -9 -126 -50 -136 -66 -3 -6 4 -4 17 5 29 19 110
48 117 42 2 -3 -9 -21 -24 -41 -40 -53 -45 -136 -12 -185 31 -47 88 -74 135
-65 49 9 112 70 123 118 17 80 -37 165 -120 187 -22 6 -40 12 -40 14 0 12 118
79 182 105 130 51 417 97 791 126 48 4 87 11 87 16 0 5 -3 8 -7 7 -5 -1 -33
-3 -63 -5z m-929 -299 c48 -27 89 -85 89 -128 0 -45 -48 -101 -100 -116 -69
-20 -160 51 -160 123 0 54 65 147 103 147 11 0 41 -12 68 -26z"/>
<path d="M3390 6500 c0 -5 5 -10 10 -10 6 0 10 -7 10 -15 0 -18 -12 -19 -28
-3 -9 9 -12 9 -12 -3 0 -9 9 -24 20 -34 19 -18 20 -17 20 2 0 12 7 24 17 27
14 6 14 9 -5 26 -24 22 -32 25 -32 10z"/>
<path d="M3503 6505 c4 -5 71 -38 150 -75 150 -70 305 -155 502 -278 116 -72
682 -446 698 -461 11 -11 -100 -68 -153 -80 -61 -13 -112 -2 -127 29 -9 19
-19 24 -38 22 -17 -2 -34 6 -55 27 -32 32 -39 29 -15 -6 8 -12 29 -25 46 -28
18 -4 42 -19 55 -34 20 -23 29 -26 87 -25 53 1 79 8 142 37 42 21 81 37 87 37
5 0 35 -17 66 -39 112 -75 170 -91 192 -52 17 32 12 43 -37 88 -25 24 -43 47
-39 51 4 4 35 7 69 6 147 -2 267 -126 267 -274 0 -66 68 -93 124 -49 33 26 35
59 4 58 -13 0 -17 -3 -10 -6 17 -7 15 -40 -4 -47 -27 -10 -71 -7 -82 7 -5 6
-13 39 -17 72 -9 78 -33 131 -81 179 -55 54 -111 77 -189 77 -35 0 -73 -4 -84
-10 -16 -9 -49 9 -218 122 -385 258 -693 420 -1138 600 -55 22 -113 41 -130
43 -16 1 -41 6 -55 10 -14 4 -22 3 -17 -1z m472 -189 c299 -142 532 -273 782
-440 116 -77 149 -105 86 -73 -40 21 -73 30 -73 20 0 -4 27 -30 60 -57 34 -27
59 -51 56 -53 -2 -3 -150 92 -328 210 -343 228 -508 330 -678 422 -139 75 -92
60 95 -29z m944 -573 c25 -14 40 -28 33 -31 -11 -3 -92 44 -92 54 0 9 16 3 59
-23z m86 -59 c14 -9 22 -20 19 -25 -3 -5 1 -9 8 -10 47 -3 63 -8 74 -24 19
-26 17 -35 -5 -35 -33 0 -50 11 -44 27 4 11 2 14 -6 9 -13 -8 -94 58 -83 68 8
8 10 8 37 -10z"/>
<path d="M4920 6305 c0 -6 105 -55 117 -55 9 1 -98 59 -109 60 -5 0 -8 -2 -8
-5z"/>
<path d="M5180 6202 c0 -4 19 -22 43 -39 23 -17 58 -43 77 -58 19 -15 8 -1
-25 30 -62 59 -95 82 -95 67z"/>
<path d="M5624 5845 c-10 -16 -14 -34 -9 -54 10 -45 116 -153 247 -252 144
-109 208 -175 250 -256 35 -66 33 -83 -6 -65 -41 18 -111 24 -154 12 -47 -12
-106 -59 -128 -101 -49 -96 29 -209 146 -209 89 0 168 72 191 175 7 30 16 55
22 55 24 0 136 -129 164 -190 94 -199 61 -394 -96 -575 l-35 -40 42 40 c172
161 204 439 74 641 -36 55 -134 154 -153 154 -4 0 -16 28 -25 61 -29 103 -109
194 -279 319 -144 105 -245 213 -245 263 0 29 31 33 52 8 16 -21 18 -22 18 -4
0 45 -50 58 -76 18z m484 -655 c39 -18 42 -22 42 -57 0 -52 -41 -135 -79 -163
-66 -46 -157 -35 -211 26 -36 42 -40 93 -10 141 48 79 149 100 258 53z"/>
<path d="M934 5782 c4 -43 14 -98 22 -123 13 -40 14 -41 9 -9 -2 19 -8 74 -11
123 -4 48 -11 87 -17 87 -6 0 -7 -29 -3 -78z"/>
<path d="M5510 5800 c6 -11 16 -20 22 -20 6 0 3 9 -7 20 -10 11 -20 20 -22 20
-2 0 1 -9 7 -20z"/>
<path d="M599 5696 c-44 -30 -63 -87 -54 -156 6 -46 6 -47 -25 -60 -40 -17
-70 -55 -70 -92 0 -36 38 -76 80 -84 28 -6 37 -22 31 -56 0 -5 4 -8 11 -8 6 0
8 -3 5 -7 -14 -13 17 -33 52 -33 41 0 75 20 92 53 l11 22 -21 -22 c-27 -29
-63 -38 -90 -23 -17 9 -21 20 -21 60 0 49 -1 50 -30 50 -39 0 -78 19 -85 42
-11 32 4 53 50 76 l44 21 -6 65 c-7 78 7 121 48 141 60 32 105 7 117 -65 l8
-45 67 0 c55 0 71 -4 88 -22 27 -26 18 -58 -22 -78 -33 -17 -36 -29 -14 -51
60 -61 -9 -148 -87 -109 -38 18 -38 18 -38 1 0 -7 10 -16 23 -20 99 -26 174
44 132 126 -15 31 -15 33 4 48 23 17 39 57 33 83 -6 28 -58 49 -115 46 l-52
-3 -6 37 c-13 83 -88 112 -160 63z"/>
<path d="M4564 5698 c-19 -23 -19 -23 1 -7 11 9 26 14 34 11 8 -3 11 0 7 7
-10 16 -21 14 -42 -11z"/>
<path d="M738 5458 c16 -16 15 -28 -3 -28 -8 0 -15 -5 -15 -11 0 -6 10 -9 23
-7 16 2 23 11 25 31 3 22 -1 27 -19 27 -18 0 -20 -3 -11 -12z"/>
<path d="M637 5454 c-4 -4 -7 -18 -7 -31 0 -21 4 -24 28 -21 21 2 27 8 27 28
0 18 -6 26 -20 28 -12 2 -24 0 -28 -4z m23 -29 c0 -8 -4 -15 -10 -15 -5 0 -10
7 -10 15 0 8 5 15 10 15 6 0 10 -7 10 -15z"/>
<path d="M991 5444 c0 -11 3 -14 6 -6 3 7 2 16 -1 19 -3 4 -6 -2 -5 -13z"/>
<path d="M3805 5408 c-121 -10 -158 -25 -153 -61 3 -21 7 -22 74 -19 l71 4 2
-198 c1 -212 7 -238 43 -194 20 24 20 34 15 213 l-5 187 47 0 c61 0 96 19 96
50 0 22 -4 25 -40 26 -22 1 -89 -3 -150 -8z"/>
<path d="M4243 5408 c-4 -7 -8 -115 -8 -240 0 -204 2 -228 16 -228 39 0 44 25
43 234 0 139 -4 208 -12 224 -14 25 -27 28 -39 10z"/>
<path d="M4577 5397 c-26 -18 -40 -138 -34 -293 6 -173 6 -174 110 -174 94 0
152 13 161 36 12 31 -4 36 -105 28 l-99 -7 -2 89 c-2 49 -1 137 1 196 3 118
-4 146 -32 125z"/>
<path d="M2710 5389 c-84 -14 -100 -29 -100 -92 0 -78 22 -384 29 -395 4 -6
60 -8 145 -4 146 7 168 15 152 57 -6 16 -16 17 -99 11 -50 -4 -107 -9 -124
-12 l-33 -6 0 79 0 80 101 6 c107 6 136 18 123 52 -6 16 -16 17 -83 12 -42 -3
-92 -9 -112 -13 l-36 -6 -6 78 c-3 43 -4 81 -1 83 2 3 56 7 120 10 118 6 138
14 131 51 -3 18 -121 23 -207 9z"/>
<path d="M310 5383 c8 -3 21 -12 28 -21 11 -14 12 -14 12 0 0 16 -21 29 -43
27 -7 0 -5 -3 3 -6z"/>
<path d="M3135 5367 c-9 -33 7 -68 70 -150 30 -41 55 -78 55 -83 0 -6 -29 -55
-65 -109 -66 -100 -73 -115 -56 -115 18 0 41 12 41 21 0 11 103 168 110 169 4
0 32 -43 65 -95 58 -95 70 -106 93 -83 22 22 12 52 -50 157 l-61 103 48 99
c27 54 46 101 42 105 -12 12 -38 -19 -73 -88 -19 -37 -38 -68 -42 -68 -4 0
-24 24 -45 53 -76 107 -120 135 -132 84z"/>
<path d="M2170 5361 c-146 -6 -170 -11 -170 -35 0 -18 32 -26 103 -26 55 0 57
-1 57 -27 1 -86 20 -376 25 -381 3 -4 14 -1 23 4 19 12 21 57 12 284 l-5 125
62 3 c50 2 65 7 73 23 13 23 5 40 -18 37 -9 -1 -82 -4 -162 -7z"/>
<path d="M284 5318 c3 -13 6 -29 6 -36 0 -7 5 -10 10 -7 7 4 7 13 0 26 -6 11
-8 24 -5 29 3 6 1 10 -6 10 -7 0 -9 -9 -5 -22z"/>
<path d="M889 5273 c-13 -16 -12 -17 4 -4 16 13 21 21 13 21 -2 0 -10 -8 -17
-17z"/>
<path d="M370 5240 c0 -5 5 -10 10 -10 6 0 10 5 10 10 0 6 -4 10 -10 10 -5 0
-10 -4 -10 -10z"/>
<path d="M259 5183 c-13 -16 -12 -17 4 -4 16 13 21 21 13 21 -2 0 -10 -8 -17
-17z"/>
<path d="M680 5175 c-19 -7 -28 -14 -20 -14 8 0 29 6 45 14 39 17 21 18 -25 0z"/>
<path d="M481 5144 c-41 -17 -85 -59 -77 -73 3 -5 1 -11 -5 -13 -7 -2 -17 -31
-24 -63 l-12 -60 -56 -9 c-45 -6 -57 -12 -57 -26 0 -16 7 -18 58 -13 65 6 82
16 82 47 0 43 31 127 58 157 21 24 39 32 74 36 43 5 50 3 79 -26 29 -30 31
-36 26 -79 -4 -26 -9 -57 -13 -69 -5 -18 -2 -23 12 -23 70 0 164 -61 164 -106
0 -26 -28 -49 -75 -60 -45 -10 -46 -13 -30 -44 19 -37 19 -70 -1 -98 -35 -51
-112 -48 -154 6 -17 21 -23 23 -30 12 -10 -17 48 -66 89 -75 74 -16 136 50
129 139 -3 36 0 41 19 44 35 5 73 50 73 86 0 51 -85 116 -150 116 -20 0 -21 4
-15 58 8 71 -4 106 -47 132 -39 23 -70 25 -117 4z"/>
<path d="M339 5133 c-13 -16 -12 -17 4 -4 16 13 21 21 13 21 -2 0 -10 -8 -17
-17z"/>
<path d="M6568 5113 c-21 -5 -25 -53 -5 -53 23 0 56 30 51 45 -6 15 -14 17
-46 8z"/>
<path d="M279 5073 l-24 -28 28 24 c15 14 27 26 27 28 0 8 -8 1 -31 -24z"/>
<path d="M6710 5015 c-26 -28 -50 -33 -50 -10 0 36 -49 -1 -50 -37 0 -31 33
-20 85 27 28 24 47 44 44 45 -3 0 -16 -11 -29 -25z m-60 -25 c0 -5 -5 -10 -11
-10 -5 0 -7 5 -4 10 3 6 8 10 11 10 2 0 4 -4 4 -10z"/>
<path d="M6712 4880 c-27 -41 -25 -94 5 -138 l18 -27 3 28 c2 16 -1 42 -7 59
-7 21 -7 36 0 50 6 10 9 29 7 41 -3 20 -6 19 -26 -13z"/>
<path d="M426 4834 c-21 -20 -20 -63 0 -71 37 -14 76 44 48 72 -19 19 -29 19
-48 -1z m34 -18 c0 -2 3 -11 6 -20 4 -11 0 -14 -15 -13 -24 1 -30 37 -6 37 8
0 15 -2 15 -4z"/>
<path d="M527 4814 c-13 -13 -7 -21 15 -20 14 1 24 -6 26 -17 3 -15 -1 -17
-25 -11 -27 6 -27 6 -11 -12 17 -17 18 -17 38 1 28 25 22 59 -10 63 -14 2 -29
0 -33 -4z"/>
<path d="M250 4739 c0 -18 8 -34 20 -41 11 -7 20 -23 20 -36 0 -15 -4 -21 -12
-16 -8 5 -9 2 -5 -10 4 -10 10 -30 13 -44 5 -22 3 -24 -6 -12 -10 13 -11 13
-7 0 6 -23 47 -40 100 -40 41 0 52 5 85 36 l37 36 -40 -26 c-70 -46 -145 -26
-145 37 0 18 7 41 15 51 24 32 17 50 -30 72 l-45 21 0 -28z m55 -39 c3 -6 -1
-7 -9 -4 -18 7 -21 14 -7 14 6 0 13 -4 16 -10z"/>
<path d="M1545 4734 c-213 -22 -254 -38 -292 -114 -31 -59 -32 -180 -2 -180 5
0 9 18 9 40 0 83 44 98 310 107 233 7 296 -2 335 -48 14 -17 25 -43 25 -57 0
-34 -40 -110 -95 -182 -75 -96 -90 -106 -189 -125 -206 -38 -356 -128 -356
-213 0 -44 15 -47 44 -9 32 42 107 84 167 93 l44 7 -43 -47 c-24 -26 -56 -73
-70 -104 -23 -48 -27 -71 -27 -145 0 -84 1 -90 28 -113 38 -33 118 -54 205
-54 129 0 269 60 428 182 38 30 74 57 80 61 9 5 10 -11 7 -57 -7 -84 2 -129
33 -166 21 -25 33 -30 67 -30 71 0 122 44 140 121 14 58 -40 187 -101 243 -22
19 -22 20 14 74 1 2 35 8 76 13 91 12 152 3 185 -26 24 -20 27 -31 35 -135 9
-125 30 -188 72 -215 35 -23 85 -6 129 46 19 21 37 39 40 39 3 0 8 -14 12 -30
9 -41 30 -60 69 -60 32 0 108 41 154 83 23 21 24 21 34 3 6 -10 22 -32 37 -49
23 -25 37 -31 84 -35 98 -8 177 47 234 163 l27 54 38 -39 c25 -26 53 -43 82
-51 32 -8 53 -21 72 -46 15 -19 42 -41 60 -49 73 -30 203 -7 313 57 62 35 204
170 313 295 40 46 78 84 83 84 6 0 27 -14 47 -30 42 -34 58 -78 58 -154 0 -54
0 -54 -90 -21 -91 34 -163 -2 -191 -96 -16 -52 3 -112 44 -143 53 -39 161 -22
247 37 l35 24 55 -37 c113 -76 213 -114 345 -128 92 -11 206 -3 284 18 73 19
46 30 -76 30 -65 0 -137 5 -161 10 -94 22 -325 140 -362 186 -11 12 -15 45
-15 123 0 94 -3 112 -27 163 -15 32 -46 75 -70 97 l-43 40 37 68 c89 166 91
304 5 367 -57 42 -158 19 -242 -56 -54 -47 -68 -82 -68 -165 1 -59 6 -84 31
-136 16 -36 46 -82 66 -104 l36 -40 -52 -69 c-28 -38 -108 -126 -177 -195
-101 -101 -140 -133 -194 -159 -104 -51 -198 -44 -225 14 -9 20 -3 28 45 70
92 82 117 172 62 227 -35 35 -123 14 -167 -40 -25 -31 -52 -96 -52 -128 0 -39
-10 -41 -44 -10 -22 20 -86 150 -86 176 0 6 -6 11 -13 11 -22 0 -45 -57 -67
-159 -21 -100 -46 -149 -91 -175 -62 -36 -104 -9 -120 78 l-11 59 64 66 c115
118 251 302 299 404 81 175 43 321 -81 304 -89 -12 -171 -103 -270 -302 -81
-161 -111 -268 -117 -418 l-6 -118 -64 -46 c-58 -42 -66 -44 -80 -30 -18 18
-42 137 -42 215 -1 36 -5 52 -14 52 -30 0 -45 -26 -51 -90 -8 -79 -42 -155
-71 -155 -26 0 -41 33 -58 133 -16 94 -35 126 -93 156 -35 19 -56 21 -200 20
-142 0 -164 -2 -195 -20 -31 -19 -34 -25 -34 -67 0 -41 -5 -51 -45 -92 -97
-101 -281 -205 -421 -239 -80 -20 -100 -20 -143 -2 -40 16 -61 61 -52 110 8
43 82 139 180 236 l77 75 117 -1 c85 0 127 -5 155 -17 44 -19 50 -6 15 38 -22
28 -109 75 -140 75 -10 0 -18 3 -18 6 0 3 27 42 60 86 74 98 108 164 116 222
18 127 -54 207 -215 242 -68 14 -266 25 -336 18z m3003 -134 c19 -37 9 -127
-23 -199 -39 -85 -48 -91 -79 -44 -57 88 -53 182 12 256 23 26 73 19 90 -13z
m-1010 -99 c-8 -85 -84 -219 -237 -420 -53 -70 -56 -73 -59 -46 -8 67 78 274
173 415 52 78 75 100 103 100 23 0 24 -2 20 -49z m-1270 -497 c-9 -9 -21 -13
-27 -9 -16 10 -3 25 22 25 20 0 20 -1 5 -16z m1540 -42 c4 -27 -44 -102 -64
-102 -19 0 -18 51 1 96 11 28 19 35 37 32 15 -2 24 -11 26 -26z m-1520 -96
c41 -47 66 -117 59 -163 -11 -68 -42 -69 -81 -3 -22 37 -37 200 -18 200 5 0
23 -15 40 -34z m2162 -51 c55 -28 62 -46 28 -82 -29 -31 -99 -32 -128 -3 -20
20 -28 88 -13 103 14 14 66 6 113 -18z"/>
<path d="M5838 4716 c-102 -28 -194 -69 -276 -125 -66 -44 -91 -86 -73 -120
17 -31 45 -42 124 -47 113 -8 114 -9 122 -55 7 -43 13 -46 20 -8 3 13 0 26 -6
30 -24 15 4 26 77 32 45 4 119 21 181 42 58 19 106 35 108 35 1 0 3 -19 3 -42
2 -53 19 -212 27 -254 6 -29 3 -35 -40 -68 -27 -20 -44 -36 -40 -36 5 0 23 12
42 26 19 14 37 24 39 21 5 -5 34 -185 49 -301 3 -23 0 -45 -7 -54 -8 -10 -9
-13 -2 -9 18 10 31 -13 38 -68 3 -27 13 -78 22 -113 13 -49 13 -66 4 -77 -10
-12 -9 -15 10 -15 34 0 10 -23 -53 -50 -59 -26 -226 -42 -213 -21 6 9 0 10
-20 5 -22 -6 -26 -4 -21 9 3 9 -1 18 -9 21 -10 4 -15 17 -13 38 1 18 -1 40 -4
48 -9 22 -28 119 -32 163 -2 20 -7 42 -10 47 -3 6 -1 10 5 10 7 0 5 7 -4 16
-9 8 -17 30 -18 47 -2 47 -4 60 -13 80 -4 9 -5 26 -2 37 3 11 2 20 -3 20 -4 0
-11 11 -14 24 -3 13 -9 31 -12 40 -4 11 2 19 17 26 23 10 23 10 2 6 -19 -3
-25 2 -32 27 -19 66 -10 -3 19 -143 16 -80 39 -197 50 -260 12 -63 23 -122 26
-131 3 -12 -19 -32 -79 -73 -97 -64 -120 -99 -93 -141 23 -36 84 -48 226 -48
101 1 144 6 224 27 114 30 257 96 286 133 26 34 25 75 -2 100 -26 23 -109 53
-145 53 -42 0 -61 18 -71 67 -15 71 -72 409 -72 429 0 14 8 16 50 12 127 -12
217 -152 190 -296 -5 -30 -21 -80 -35 -111 -32 -70 -16 -56 21 19 40 79 46
204 14 278 -38 88 -135 150 -220 140 -29 -4 -32 9 -51 197 -7 66 -16 127 -20
136 -6 13 3 22 41 43 57 31 80 59 80 98 0 60 -83 96 -235 103 -72 4 -107 0
-177 -19z m264 -10 c36 -8 80 -21 96 -30 98 -50 -17 -148 -243 -207 -75 -20
-114 -24 -235 -24 -169 1 -205 11 -205 60 0 38 69 91 183 141 166 71 275 87
404 60z m277 -1120 c62 -17 91 -40 91 -73 0 -33 -32 -61 -117 -100 -107 -49
-211 -73 -343 -80 -161 -8 -270 17 -270 60 0 17 71 77 121 102 50 26 68 21 49
-14 -26 -49 38 -77 160 -68 90 7 155 28 200 66 l34 28 -17 41 c-9 24 -17 45
-17 47 0 10 56 5 109 -9z"/>
<path d="M5835 4649 c-14 -6 -3 -7 33 -3 70 8 158 -3 177 -23 14 -14 14 -17
-1 -34 -32 -36 -122 -62 -214 -62 -91 -1 -133 13 -128 41 2 9 17 23 33 32 17
8 32 18 35 21 3 4 14 9 25 12 11 4 2 4 -20 1 -53 -7 -100 -52 -91 -87 10 -41
124 -60 225 -36 127 29 192 90 141 131 -18 14 -39 18 -109 17 -47 0 -95 -5
-106 -10z"/>
<path d="M6588 4668 c-106 -168 -92 -449 35 -693 37 -72 33 -50 -14 67 -96
241 -103 422 -24 596 25 55 27 67 3 30z"/>
<path d="M6672 4450 c-22 -29 -22 -31 -5 -55 23 -31 25 -31 50 3 l20 28 -21
27 -22 27 -22 -30z m32 -41 c-8 -13 -24 -1 -24 18 0 13 3 13 15 3 8 -7 12 -16
9 -21z"/>
<path d="M480 4439 c-43 -18 -60 -40 -60 -81 0 -46 28 -78 68 -78 71 0 120
102 72 150 -22 22 -42 24 -80 9z"/>
<path d="M5791 4368 c-34 -12 -22 -17 24 -9 30 5 35 8 20 12 -12 4 -31 2 -44
-3z"/>
<path d="M5848 4343 c12 -2 32 -2 45 0 12 2 2 4 -23 4 -25 0 -35 -2 -22 -4z"/>
<path d="M680 4320 c0 -5 11 -10 25 -10 14 0 37 -11 50 -25 14 -13 25 -20 25
-14 0 20 -50 59 -75 59 -14 0 -25 -4 -25 -10z"/>
<path d="M641 4296 c-27 -29 -37 -85 -19 -108 15 -20 75 -38 64 -19 -4 6 -13
11 -20 11 -17 0 -46 33 -46 53 0 8 12 30 26 47 31 37 27 50 -5 16z"/>
<path d="M5751 4304 c0 -11 3 -14 6 -6 3 7 2 16 -1 19 -3 4 -6 -2 -5 -13z"/>
<path d="M6648 4303 c-41 -47 -22 -113 31 -113 23 0 31 -7 44 -37 9 -21 14
-27 10 -13 -7 28 -7 41 2 85 4 24 4 26 -4 9 -5 -12 -17 -24 -27 -28 -22 -8
-64 19 -64 42 1 26 27 55 44 49 9 -4 18 -2 22 4 3 6 12 8 20 5 8 -3 14 -1 14
4 0 18 -76 11 -92 -7z"/>
<path d="M250 4265 c0 -22 4 -34 10 -30 6 3 10 17 10 30 0 13 -4 27 -10 30 -6
4 -10 -8 -10 -30z"/>
<path d="M6710 4286 c0 -2 7 -9 15 -16 13 -11 14 -10 9 4 -5 14 -24 23 -24 12z"/>
<path d="M5760 4277 c-1 -25 34 -136 41 -131 5 3 5 13 -1 24 -5 10 -10 32 -10
47 0 25 -29 83 -30 60z"/>
<path d="M5820 4230 c0 -6 7 -10 15 -10 8 0 15 2 15 4 0 2 -7 6 -15 10 -8 3
-15 1 -15 -4z"/>
<path d="M766 4205 c-3 -8 -16 -20 -28 -25 -15 -5 -17 -9 -7 -9 17 -1 56 36
47 44 -3 3 -8 -1 -12 -10z"/>
<path d="M256 4085 c8 -43 203 -528 218 -543 13 -13 4 29 -15 72 -21 48 -19
84 3 70 6 -4 62 -18 124 -30 124 -25 165 -41 212 -84 34 -30 41 -50 19 -50
-36 0 -117 -88 -117 -127 0 -19 30 -43 55 -43 59 0 103 47 109 117 3 33 7 38
36 44 37 8 136 -3 197 -21 22 -7 63 -29 90 -49 147 -111 189 -448 78 -618
l-17 -25 -39 89 c-22 49 -53 105 -69 124 l-28 34 11 -37 c7 -21 15 -38 19 -38
25 0 113 -243 142 -395 16 -81 21 -99 55 -216 66 -225 200 -356 382 -375 180
-18 372 101 440 275 l18 46 1 -51 c0 -99 -60 -225 -152 -315 -121 -118 -242
-160 -408 -140 -169 21 -256 63 -312 153 -54 85 -65 118 -144 408 -64 237
-160 454 -230 524 -21 22 -86 116 -89 130 -1 6 -7 24 -13 39 -17 41 -15 57 7
57 11 0 23 5 26 10 4 6 -10 10 -34 10 -36 0 -40 -2 -32 -17 6 -10 17 -43 25
-73 10 -34 37 -86 72 -135 32 -44 75 -112 95 -150 41 -76 114 -263 125 -320 6
-36 10 -30 -101 -205 -234 -368 -253 -407 -225 -459 25 -47 179 -67 260 -35
l41 17 32 -31 c18 -17 59 -44 92 -59 56 -26 69 -28 185 -28 69 0 140 3 159 7
l33 8 -16 -25 c-22 -34 -20 -79 9 -181 47 -164 113 -279 232 -405 77 -81 125
-103 167 -75 34 21 40 52 31 145 -4 42 -7 86 -7 98 0 12 -8 23 -18 26 -11 3
-17 0 -15 -7 3 -6 -7 -20 -22 -30 -24 -17 -28 -18 -52 -4 -14 9 -41 37 -58 63
-18 26 -33 45 -33 41 0 -17 46 -89 68 -106 34 -28 20 -37 -16 -11 -39 27 -105
128 -98 147 3 8 2 12 -4 9 -10 -6 -30 56 -30 96 0 23 16 40 42 43 3 1 10 4 14
8 14 15 21 8 34 -32 7 -22 16 -40 20 -40 4 0 12 -12 19 -27 21 -47 41 -74 51
-68 9 5 -23 61 -42 75 -14 11 -49 100 -43 110 3 5 52 34 108 65 56 30 121 66
144 80 29 16 43 20 46 12 3 -7 8 -4 13 8 7 20 29 38 38 33 3 -2 11 4 18 14 7
9 29 25 48 35 19 10 63 37 97 61 34 23 64 42 67 42 3 0 29 18 58 40 46 35 54
37 60 22 6 -15 7 -14 7 3 1 11 10 26 20 32 18 11 23 5 62 -73 50 -102 108
-182 183 -257 70 -69 108 -86 145 -66 42 24 53 55 46 134 -9 101 -44 199 -104
292 -51 80 -172 205 -234 243 -57 35 -104 21 -121 -36 -6 -19 10 -113 29 -179
5 -16 -3 -26 -34 -47 -43 -28 -45 -28 -55 16 -27 113 -161 150 -279 76 -27
-17 -52 -29 -54 -26 -2 2 7 27 21 55 54 105 71 236 42 323 -8 24 -22 71 -31
106 -10 34 -22 62 -27 62 -6 0 -7 -8 -3 -17 19 -49 36 -162 30 -205 -17 -118
-108 -239 -227 -297 -78 -38 -204 -54 -258 -31 -106 44 -206 271 -181 412 20
115 96 213 207 268 124 61 222 51 351 -36 36 -24 68 -42 71 -39 9 9 -71 73
-128 101 -47 24 -67 28 -140 29 -76 0 -92 -3 -151 -32 -70 -35 -159 -98 -159
-113 0 -5 -14 -31 -30 -57 -17 -26 -35 -73 -42 -105 -7 -36 -18 -59 -27 -61
-13 -4 -13 -5 2 -6 13 -1 17 -10 17 -35 0 -19 5 -47 10 -62 8 -19 7 -31 -2
-42 -10 -12 -10 -14 -1 -8 9 5 21 -11 38 -50 14 -32 37 -73 51 -91 14 -18 21
-33 15 -33 -17 0 -116 97 -138 136 -45 77 -72 138 -66 147 3 5 1 12 -4 16 -11
7 -33 77 -87 284 l-36 139 35 57 c110 178 68 513 -77 625 -58 43 -142 68 -250
72 l-97 4 -44 43 c-52 53 -96 69 -262 97 -98 17 -123 24 -137 43 -20 26 -32
72 -23 87 4 7 -2 14 -15 17 -13 3 -19 11 -16 20 3 8 2 12 -3 9 -5 -3 -12 6
-16 22 -3 15 -18 51 -31 80 -14 30 -23 60 -20 68 3 8 2 13 -3 9 -5 -3 -16 14
-25 37 -11 29 -14 33 -10 13z m594 -619 c0 -68 -83 -125 -119 -82 -26 31 44
116 95 116 21 0 24 -5 24 -34z m326 -1247 c58 -211 92 -286 159 -347 121 -110
378 -142 542 -67 31 14 57 24 59 22 7 -7 -96 -66 -165 -96 -260 -110 -502
-104 -633 17 l-28 25 19 31 c38 61 36 129 -4 169 -25 25 -43 21 -65 -15 -24
-39 -26 -104 -5 -154 14 -34 14 -35 -11 -44 -33 -13 -129 -13 -175 0 -67 19
-80 64 -40 141 46 87 293 490 298 485 2 -2 24 -77 49 -167z m1470 -33 c69 -47
163 -143 222 -229 57 -82 90 -177 99 -282 5 -60 3 -73 -14 -94 -27 -33 -58
-24 -127 39 -119 110 -214 274 -262 454 -20 78 -24 104 -15 122 14 33 37 30
97 -10z m-267 -141 c43 -22 83 -74 79 -103 -2 -21 -25 -40 -113 -95 -121 -77
-524 -317 -532 -317 -2 0 -25 18 -51 39 -26 22 -67 51 -90 64 l-44 25 69 22
c145 48 243 113 371 244 97 98 161 136 234 136 27 0 62 -7 77 -15z m-1265
-107 c19 -27 21 -77 4 -113 -15 -33 -24 -32 -43 5 -26 50 -16 130 16 130 5 0
15 -10 23 -22z m573 -347 c32 -22 67 -49 77 -60 18 -20 18 -21 0 -27 -46 -14
-49 -20 -48 -85 1 -76 35 -154 96 -224 54 -61 78 -66 124 -25 26 23 40 28 47
21 6 -6 13 -54 15 -106 4 -93 4 -95 -21 -106 -92 -42 -313 247 -377 495 -25
98 -25 132 -2 145 24 15 24 15 89 -28z"/>
<path d="M2670 2055 c-36 -43 23 -216 102 -299 52 -54 88 -61 106 -21 16 34
15 42 -8 113 -24 73 -84 175 -118 202 -30 24 -65 26 -82 5z m88 -41 c49 -44
101 -153 109 -229 5 -51 4 -55 -15 -55 -56 0 -162 166 -170 266 -4 49 -3 54
16 54 11 0 38 -16 60 -36z"/>
<path d="M546 4073 c-6 -14 -5 -15 5 -6 7 7 10 15 7 18 -3 3 -9 -2 -12 -12z"/>
<path d="M5998 4073 c7 -3 16 -2 19 1 4 3 -2 6 -13 5 -11 0 -14 -3 -6 -6z"/>
<path d="M5903 4063 c15 -2 39 -2 55 0 15 2 2 4 -28 4 -30 0 -43 -2 -27 -4z"/>
<path d="M513 4023 c-11 -16 -28 -44 -37 -63 l-17 -35 20 25 c22 27 65 100 59
100 -3 0 -13 -12 -25 -27z"/>
<path d="M681 4012 c-1 -7 -13 -24 -28 -38 l-27 -25 23 -15 c12 -9 26 -26 31
-38 8 -20 9 -19 20 11 6 17 18 34 26 37 20 8 17 24 -7 31 -11 4 -24 16 -29 28
-5 12 -9 16 -9 9z m17 -50 c7 -5 10 -16 6 -26 -6 -16 -8 -16 -25 0 -27 24 -11
45 19 26z"/>
<path d="M5875 3960 c3 -5 8 -10 11 -10 2 0 4 5 4 10 0 6 -5 10 -11 10 -5 0
-7 -4 -4 -10z"/>
<path d="M5562 3918 c-66 -33 -120 -273 -76 -336 31 -45 108 -18 149 51 14 24
25 52 24 63 0 11 -5 5 -10 -13 -12 -42 -80 -113 -107 -113 -38 0 -62 35 -62
87 0 68 39 203 66 230 78 78 201 -59 179 -199 -11 -70 -75 -257 -118 -343 -45
-90 -85 -153 -131 -205 l-31 -35 34 30 c111 99 250 411 258 580 4 69 1 86 -19
124 -37 72 -104 105 -156 79z"/>
<path d="M424 3879 c-14 -22 -24 -43 -22 -44 2 -2 16 16 31 40 33 56 26 59 -9
4z"/>
<path d="M6059 3876 c-2 -3 -33 -7 -68 -10 -34 -2 -66 -8 -69 -12 -10 -10 118
3 148 15 14 5 18 10 9 10 -9 1 -18 -1 -20 -3z"/>
<path d="M6669 3808 c-47 -87 -47 -93 -2 -23 55 85 55 85 45 85 -5 0 -24 -28
-43 -62z"/>
<path d="M524 3845 c-4 -8 -12 -15 -19 -15 -26 0 -25 -19 4 -47 l29 -29 25 31
25 31 -25 22 c-29 26 -32 27 -39 7z m21 -26 c10 -15 -1 -23 -20 -15 -9 3 -13
10 -10 16 8 13 22 13 30 -1z"/>
<path d="M6725 3820 c3 -5 8 -10 11 -10 2 0 4 5 4 10 0 6 -5 10 -11 10 -5 0
-7 -4 -4 -10z"/>
<path d="M250 3813 c0 -12 38 -48 45 -41 3 2 -6 15 -20 28 -14 13 -25 19 -25
13z"/>
<path d="M5586 3769 c-30 -35 -31 -39 -12 -64 12 -16 16 -17 30 -6 9 7 16 19
15 25 0 7 -2 6 -6 -1 -2 -7 -11 -13 -19 -13 -21 0 -17 44 6 65 16 15 22 15 35
5 8 -7 15 -23 15 -36 0 -13 5 -24 11 -24 13 0 4 47 -13 67 -17 20 -34 15 -62
-18z"/>
<path d="M5928 3773 c7 -3 16 -2 19 1 4 3 -2 6 -13 5 -11 0 -14 -3 -6 -6z"/>
<path d="M6068 3773 c7 -3 16 -2 19 1 4 3 -2 6 -13 5 -11 0 -14 -3 -6 -6z"/>
<path d="M330 3740 c-6 -11 -8 -20 -6 -20 3 0 10 9 16 20 6 11 8 20 6 20 -3 0
-10 -9 -16 -20z"/>
<path d="M5968 3733 c7 -3 16 -2 19 1 4 3 -2 6 -13 5 -11 0 -14 -3 -6 -6z"/>
<path d="M6048 3733 c7 -3 16 -2 19 1 4 3 -2 6 -13 5 -11 0 -14 -3 -6 -6z"/>
<path d="M6595 3679 c-4 -6 -5 -12 -2 -15 2 -3 7 2 10 11 7 17 1 20 -8 4z"/>
<path d="M260 3629 c-18 -33 -7 -41 12 -9 9 17 13 30 8 30 -5 0 -14 -9 -20
-21z"/>
<path d="M6726 3573 c-6 -14 -5 -15 5 -6 7 7 10 15 7 18 -3 3 -9 -2 -12 -12z"/>
<path d="M6107 3569 c7 -7 15 -10 18 -7 3 3 -2 9 -12 12 -14 6 -15 5 -6 -5z"/>
<path d="M6068 3553 c7 -3 16 -2 19 1 4 3 -2 6 -13 5 -11 0 -14 -3 -6 -6z"/>
<path d="M6008 3543 c6 -2 18 -2 25 0 6 3 1 5 -13 5 -14 0 -19 -2 -12 -5z"/>
<path d="M400 3432 c0 -11 29 -49 30 -39 0 4 13 1 29 -8 55 -28 116 -44 236
-60 180 -24 244 -60 343 -190 l23 -30 -16 33 c-9 18 -43 60 -75 92 -69 69
-124 89 -310 115 -118 17 -196 43 -226 76 -18 20 -34 25 -34 11z"/>
<path d="M6530 3392 c0 -10 6 -24 13 -32 10 -12 9 -12 -6 -1 -25 19 -34 5 -12
-19 l18 -20 15 21 c12 17 12 25 2 45 -16 28 -30 31 -30 6z"/>
<path d="M6334 3348 c-30 -57 -102 -124 -164 -152 -61 -28 -108 -37 -260 -55
-47 -5 -93 -13 -103 -16 -13 -6 -18 -1 -23 24 -9 45 -23 48 -17 3 5 -34 2 -39
-28 -55 -26 -13 -28 -16 -9 -11 14 3 29 7 35 8 5 0 14 -21 20 -49 5 -27 13
-55 18 -62 15 -23 -4 -78 -39 -113 -18 -20 -34 -39 -34 -43 0 -4 20 15 45 43
l45 51 0 -32 c0 -18 3 -29 6 -26 6 5 -4 80 -29 231 -3 14 44 24 141 30 226 13
357 86 411 229 14 37 5 34 -15 -5z"/>
<path d="M6605 3320 c-3 -6 4 -24 16 -41 15 -22 18 -34 10 -42 -8 -8 -16 -6
-31 8 -30 27 -35 11 -9 -24 23 -31 39 -40 39 -21 0 6 11 21 25 34 l25 23 -34
37 c-20 20 -38 32 -41 26z"/>
<path d="M471 3238 c-1 -18 7 -33 26 -47 29 -24 127 -55 146 -48 7 3 4 6 -6 6
-10 1 -49 15 -87 33 -55 26 -70 37 -73 58 l-4 25 -2 -27z"/>
<path d="M268 3219 c-30 -17 -20 -28 15 -18 42 12 115 -8 135 -38 8 -13 21
-23 28 -23 8 0 19 -11 24 -24 5 -13 14 -27 19 -31 6 -3 11 -21 11 -38 0 -25
-3 -29 -11 -17 -8 12 -9 7 -6 -17 2 -18 1 -33 -3 -33 -3 0 -14 -24 -24 -53
-10 -29 -27 -64 -38 -77 -11 -14 -16 -18 -12 -10 4 8 -9 0 -29 -17 -21 -18
-42 -33 -48 -33 -6 0 -7 -5 -4 -10 4 -7 -2 -9 -19 -4 -16 4 -26 2 -26 -5 0 -6
-7 -11 -16 -11 -9 0 -14 -7 -12 -17 5 -27 98 -24 135 3 33 25 94 124 88 142
-3 7 0 10 5 7 9 -6 12 -2 14 28 1 6 4 15 8 18 5 3 13 31 19 62 10 50 10 63 -7
98 -38 85 -183 155 -246 118z m156 -419 c-10 -16 -32 -36 -50 -45 -44 -21 -55
-19 -19 4 17 10 41 30 54 45 32 34 36 33 15 -4z m-54 -5 c-7 -8 -17 -15 -23
-15 -6 0 -2 7 9 15 25 19 30 19 14 0z"/>
<path d="M6697 3163 c-72 -105 -108 -273 -73 -341 18 -35 54 -68 89 -81 25
-10 27 -9 27 13 0 17 -7 26 -24 30 -14 3 -34 19 -45 35 -26 36 -45 129 -31
146 6 7 8 20 4 29 -4 9 -1 16 6 16 7 0 10 7 6 15 -3 8 -1 15 4 15 4 0 11 14
15 30 4 17 11 30 15 30 5 0 7 6 4 14 -3 7 6 27 20 44 27 32 32 42 17 42 -4 0
-20 -17 -34 -37z"/>
<path d="M693 3133 c9 -2 25 -2 35 0 9 3 1 5 -18 5 -19 0 -27 -2 -17 -5z"/>
<path d="M895 3119 c-6 -9 8 -13 80 -24 22 -4 59 -15 83 -25 l42 -19 -17 24
c-10 13 -19 19 -21 14 -2 -4 -20 -2 -40 6 -55 22 -121 34 -127 24z"/>
<path d="M5956 3065 c-21 -25 -36 -45 -34 -45 2 0 24 20 48 45 24 25 39 45 33
45 -6 0 -27 -20 -47 -45z"/>
<path d="M5575 3054 c-71 -37 -103 -84 -134 -202 -9 -31 -46 -83 -134 -190
-149 -178 -166 -202 -179 -250 -6 -20 -27 -55 -47 -77 -42 -45 -90 -128 -116
-197 l-17 -47 -92 -31 c-109 -36 -116 -36 -117 -7 -1 18 -3 17 -8 -7 -5 -25
-18 -34 -116 -76 -144 -61 -336 -158 -404 -205 -30 -20 -59 -37 -64 -38 -6 -1
-35 61 -37 79 0 1 12 5 27 9 72 18 372 201 556 338 161 120 156 118 132 82
-44 -68 -85 -139 -85 -149 1 -6 8 3 16 19 53 101 132 197 276 334 65 62 159
160 209 217 75 86 87 104 69 104 -42 0 -146 -32 -229 -71 -46 -21 -88 -39 -93
-39 -13 0 1 47 33 116 40 84 130 167 243 223 91 45 110 64 35 35 -165 -65
-308 -220 -326 -354 -5 -35 -11 -42 -69 -76 -202 -118 -506 -391 -752 -674
-80 -92 -83 -94 -121 -91 -24 1 -59 -6 -90 -20 -29 -12 -53 -20 -54 -18 -1 2
-11 21 -21 42 -45 88 -145 174 -242 207 -145 50 -376 3 -499 -103 -22 -19 -54
-59 -70 -88 -24 -45 -29 -66 -29 -124 -1 -103 42 -173 136 -221 66 -34 196
-37 317 -7 22 5 18 -2 -33 -57 -32 -35 -110 -143 -174 -239 -161 -246 -273
-354 -392 -377 l-35 -7 55 50 c30 27 89 79 130 114 106 91 190 176 190 194 0
25 -49 37 -121 31 -77 -7 -401 -94 -482 -129 -80 -36 -101 -87 -51 -126 33
-26 129 -29 160 -6 18 14 18 16 -14 42 -32 28 -32 29 -19 67 13 39 14 39 103
61 49 13 125 32 168 44 105 28 126 28 123 -2 -2 -19 3 -22 34 -25 l36 -3 -66
-62 c-36 -35 -117 -109 -178 -165 l-113 -102 -104 0 c-57 0 -128 4 -157 10
-167 31 -268 153 -240 290 15 76 76 162 218 310 117 123 153 171 116 155 -10
-4 -26 -8 -35 -9 -10 0 -18 -3 -18 -6 0 -4 -22 -17 -49 -30 l-50 -23 -45 27
c-47 27 -108 94 -125 137 -6 15 -10 18 -10 8 -2 -31 64 -114 116 -148 36 -24
49 -37 40 -43 -31 -20 8 -4 79 31 43 22 80 38 83 36 2 -3 -42 -52 -97 -110
-148 -155 -189 -205 -219 -271 -52 -114 -40 -214 35 -289 75 -76 170 -105 335
-105 185 0 306 46 417 159 63 63 98 112 245 341 39 60 98 135 140 176 63 63
83 75 166 108 86 33 180 48 179 29 -1 -5 -38 -33 -83 -63 -179 -120 -278 -218
-331 -330 -26 -55 -31 -77 -31 -140 0 -85 14 -119 71 -174 95 -92 245 -80 396
32 111 82 182 178 213 286 26 89 17 242 -17 318 -23 48 -24 59 -12 69 19 16
67 -5 100 -44 38 -45 59 -93 83 -191 45 -184 112 -257 259 -286 49 -10 79 -10
133 -1 176 29 315 159 423 392 l49 107 76 4 c157 10 301 119 301 228 0 78 -63
112 -157 85 -74 -22 -135 -84 -184 -190 -22 -47 -43 -85 -46 -85 -18 0 -74 49
-97 84 -23 35 -30 61 -29 104 1 6 -4 12 -9 12 -7 0 -9 -22 -6 -55 5 -62 38
-113 100 -154 36 -23 36 -24 23 -60 -25 -71 -88 -187 -141 -256 -95 -127 -196
-186 -330 -193 -110 -6 -176 14 -242 73 -56 50 -77 94 -113 241 -24 95 -61
157 -114 193 l-36 24 30 30 c27 28 39 31 142 44 244 30 581 107 784 179 133
48 303 131 395 193 93 63 188 146 177 157 -11 11 -333 -43 -486 -82 -74 -19
-136 -32 -138 -30 -9 9 88 183 116 210 l28 27 13 -31 c27 -66 100 -81 151 -31
35 35 37 70 7 99 -31 28 -71 36 -109 23 -18 -6 -34 -9 -37 -7 -2 3 2 21 9 41
14 36 55 91 207 271 54 64 86 111 93 138 32 120 62 162 144 204 22 12 33 21
25 21 -8 1 -28 -6 -45 -15z m-303 -339 c-16 -31 -232 -244 -252 -250 -11 -4
-18 -10 -16 -13 2 -4 -12 -22 -32 -40 -20 -18 -62 -56 -92 -83 -30 -27 -73
-62 -95 -77 -22 -15 -49 -35 -60 -45 -19 -18 -169 -124 -230 -163 -17 -11 -26
-14 -21 -6 5 8 -23 -9 -62 -37 -38 -28 -83 -57 -98 -64 -16 -7 -48 -24 -70
-39 -47 -30 -115 -60 -121 -54 -8 7 147 173 308 332 277 272 489 421 727 514
111 44 127 47 114 25z m-10 -352 c26 -23 23 -59 -8 -79 -34 -23 -72 -10 -98
35 -19 33 -19 34 -1 47 26 19 85 17 107 -3z m268 -194 c-14 -11 -68 -49 -121
-84 -201 -136 -460 -231 -839 -309 -189 -39 -380 -67 -380 -56 0 10 185 110
203 110 9 0 18 4 21 9 3 5 15 7 26 4 14 -4 20 0 20 10 0 11 9 14 38 12 20 -1
27 0 15 2 -25 5 -30 18 -10 26 6 3 84 34 172 70 266 108 624 209 747 211 31 1
51 4 45 8 -7 4 11 8 38 8 l50 0 -25 -21z m-1884 -183 c110 -55 210 -177 229
-281 7 -33 17 -28 -278 -140 -304 -115 -538 -40 -537 172 1 128 74 205 250
261 90 29 105 31 189 27 61 -3 88 -10 147 -39z m1761 -148 c76 -71 -41 -212
-204 -247 -57 -12 -113 -5 -113 13 0 19 58 135 86 172 61 79 179 111 231 62z
m-1364 -75 c15 -7 27 -20 27 -28 0 -8 5 -15 10 -15 17 0 11 20 -15 45 -28 29
-18 34 14 8 33 -28 37 -72 9 -112 -13 -19 -29 -37 -37 -39 -10 -3 -7 6 7 26
12 16 22 38 22 49 0 11 -6 6 -18 -16 -9 -19 -29 -44 -45 -55 -25 -18 -29 -19
-43 -4 -14 14 -13 16 15 21 62 13 65 97 3 97 -39 0 -66 -31 -59 -67 5 -25 1
-30 -32 -45 -21 -10 -43 -18 -49 -18 -24 0 -11 25 21 41 28 14 33 22 37 62 3
26 3 48 0 50 -3 2 0 3 6 1 5 -1 21 4 35 12 25 14 45 11 92 -13z m-73 -51 c0
-13 -12 -22 -22 -16 -10 6 -1 24 13 24 5 0 9 -4 9 -8z m50 -32 c0 -12 -28 -25
-36 -17 -9 9 6 27 22 27 8 0 14 -5 14 -10z m-205 -70 c4 -6 -6 -10 -22 -10
-22 0 -25 2 -13 10 19 12 27 12 35 0z m148 -47 c56 -85 81 -176 75 -276 -8
-129 -35 -186 -132 -282 -138 -137 -258 -182 -362 -136 -108 48 -153 135 -132
253 24 132 116 228 423 442 44 30 82 55 85 56 3 0 23 -26 43 -57z m-816 -400
c-9 -9 -20 -13 -24 -9 -4 4 -1 11 7 16 25 16 35 11 17 -7z m-478 -110 c-6 -15
-15 -33 -21 -40 -12 -15 -13 -15 25 -31 60 -26 18 -42 -55 -21 -28 7 -40 17
-44 35 -8 30 -2 37 51 63 53 26 56 26 44 -6z"/>
<path d="M4573 2174 l-28 -26 33 22 c29 20 39 30 28 30 -3 0 -18 -12 -33 -26z"/>
<path d="M5080 2035 c-19 -7 -28 -14 -20 -14 8 0 29 6 45 14 39 17 21 18 -25
0z"/>
<path d="M4995 2010 c-13 -5 -14 -9 -5 -9 8 0 24 4 35 9 13 5 14 9 5 9 -8 0
-24 -4 -35 -9z"/>
<path d="M4865 1960 c3 -5 14 -10 23 -10 15 0 15 2 2 10 -20 13 -33 13 -25 0z"/>
<path d="M4800 1945 c-31 -12 -32 -14 -10 -14 36 -1 71 10 64 20 -7 11 -11 11
-54 -6z"/>
<path d="M4728 1913 c7 -3 16 -2 19 1 4 3 -2 6 -13 5 -11 0 -14 -3 -6 -6z"/>
<path d="M4688 1903 c7 -3 16 -2 19 1 4 3 -2 6 -13 5 -11 0 -14 -3 -6 -6z"/>
<path d="M4638 1893 c7 -3 16 -2 19 1 4 3 -2 6 -13 5 -11 0 -14 -3 -6 -6z"/>
<path d="M4575 1880 c28 -12 37 -12 30 0 -3 6 -16 10 -28 9 -21 0 -21 -1 -2
-9z"/>
<path d="M3425 1964 c-126 -33 -241 -81 -268 -111 -41 -46 -34 -143 15 -199
55 -62 99 -79 208 -78 78 1 112 7 195 34 93 30 255 104 255 116 0 18 -47 90
-91 138 -71 78 -114 99 -214 102 -44 2 -89 0 -100 -2z m203 -61 c41 -19 68
-43 114 -101 l60 -76 -28 -14 c-64 -34 -249 -92 -326 -103 -100 -14 -151 -3
-203 42 -61 54 -65 137 -8 192 16 14 54 37 85 51 115 51 212 54 306 9z m-388
-17 c0 -3 -4 -8 -10 -11 -5 -3 -10 -1 -10 4 0 6 5 11 10 11 6 0 10 -2 10 -4z
m-36 -25 c7 -10 -22 -37 -30 -28 -9 8 3 37 15 37 5 0 12 -4 15 -9z m-29 -41
c3 -5 -1 -10 -9 -10 -9 0 -16 5 -16 10 0 6 4 10 9 10 6 0 13 -4 16 -10z m-9
-42 c-3 -13 -6 -26 -6 -30 0 -5 -4 -8 -10 -8 -5 0 -10 14 -10 30 0 21 5 30 16
30 12 0 15 -6 10 -22z"/>
<path d="M3896 1537 c-213 -134 -322 -231 -370 -329 -51 -104 -29 -232 47
-278 34 -21 87 -27 87 -9 0 5 -4 8 -9 5 -5 -4 -17 -3 -27 1 -12 4 1 10 42 19
52 11 61 10 71 -4 7 -8 16 -12 20 -8 4 4 1 11 -7 16 -17 11 -13 16 20 24 14 3
19 3 13 0 -7 -3 -13 -10 -13 -16 0 -6 9 -3 20 7 11 10 19 20 17 21 -2 2 26 34
62 71 84 88 124 170 123 256 0 95 -43 239 -70 236 -4 0 -16 -6 -26 -12z m43
-95 c31 -114 28 -185 -9 -259 -51 -101 -164 -189 -256 -199 -59 -6 -90 8 -121
55 -50 73 -20 170 84 276 58 59 247 203 269 204 7 1 21 -34 33 -77z"/>
<path d="M3688 913 c7 -3 16 -2 19 1 4 3 -2 6 -13 5 -11 0 -14 -3 -6 -6z"/>
<path d="M250 3027 c0 -9 7 -14 15 -13 20 3 20 20 1 24 -9 2 -16 -3 -16 -11z"/>
<path d="M6720 3026 c-14 -18 -10 -58 8 -64 8 -2 12 9 12 37 0 45 -2 48 -20
27z"/>
<path d="M323 2998 c-18 -24 -23 -49 -13 -69 23 -42 84 -5 78 48 -2 22 -9 29
-29 31 -14 2 -30 -3 -36 -10z m37 -16 c0 -4 -6 -14 -12 -21 -11 -10 -9 -11 7
-5 16 6 18 5 8 -7 -16 -17 -39 2 -30 25 7 16 27 22 27 8z"/>
<path d="M261 2983 c-7 -8 -10 -17 -7 -20 9 -9 29 13 25 25 -2 6 -10 3 -18 -5z"/>
<path d="M6059 2927 c-103 -115 -124 -140 -112 -136 11 4 173 186 173 195 0 8
-6 2 -61 -59z"/>
<path d="M1090 2950 c-9 -6 -10 -10 -3 -10 6 0 15 5 18 10 8 12 4 12 -15 0z"/>
<path d="M989 2873 c-13 -16 -12 -17 4 -4 9 7 17 15 17 17 0 8 -8 3 -21 -13z"/>
<path d="M1420 2867 c0 -11 -9 -21 -20 -24 -23 -6 -26 -19 -6 -26 8 -3 16 -14
18 -25 3 -18 5 -17 29 7 l26 27 -23 29 c-19 24 -24 26 -24 12z"/>
<path d="M5832 2825 c0 -16 2 -22 5 -12 2 9 2 23 0 30 -3 6 -5 -1 -5 -18z"/>
<path d="M556 2790 c-46 -18 -130 -70 -123 -76 1 -2 29 10 60 26 124 62 200
49 291 -52 32 -35 75 -100 103 -155 47 -93 48 -97 48 -187 0 -108 -20 -154
-87 -209 -94 -75 -194 -75 -276 1 -20 19 -28 28 -17 21 11 -7 -2 10 -30 39
-49 52 -76 72 -39 30 36 -41 50 -63 36 -54 -19 12 -142 158 -142 169 0 6 10 2
21 -9 22 -19 22 -19 10 4 -7 13 -20 21 -29 20 -11 -2 -17 3 -16 14 1 10 -2 15
-7 13 -16 -10 -41 104 -34 153 5 33 9 42 16 31 7 -10 8 -6 4 11 -5 21 3 36 37
74 23 27 34 44 23 38 -61 -32 -95 -101 -95 -189 0 -108 45 -191 168 -313 109
-109 146 -130 225 -130 96 0 227 91 242 168 20 107 22 132 13 187 -5 33 -18
80 -29 104 -22 51 -90 154 -127 194 -14 15 -20 27 -14 27 28 0 185 -253 199
-321 3 -16 9 -29 13 -29 12 0 -5 65 -30 112 -91 175 -177 278 -247 297 -56 16
-112 13 -167 -9z"/>
<path d="M5674 2768 l-19 -23 23 19 c12 11 22 21 22 23 0 8 -8 2 -26 -19z"/>
<path d="M5852 2760 c0 -14 2 -19 5 -12 2 6 2 18 0 25 -3 6 -5 1 -5 -13z"/>
<path d="M1507 2743 c-14 -16 -14 -20 -1 -38 15 -20 15 -20 34 5 13 18 16 28
8 37 -14 17 -22 16 -41 -4z m23 -13 c0 -5 -5 -10 -11 -10 -5 0 -7 5 -4 10 3 6
8 10 11 10 2 0 4 -4 4 -10z"/>
<path d="M700 2738 c0 -2 21 -22 48 -43 36 -31 43 -34 31 -15 -14 21 -79 69
-79 58z"/>
<path d="M5614 2708 l-29 -33 33 29 c17 17 32 31 32 33 0 8 -8 1 -36 -29z"/>
<path d="M5859 2698 c-3 -20 -1 -34 3 -32 4 3 9 -10 9 -28 1 -18 3 -24 5 -13
3 11 1 40 -4 65 l-8 45 -5 -37z"/>
<path d="M1364 2681 c-20 -16 -20 -16 3 -50 18 -26 23 -29 23 -15 0 11 6 29
14 40 13 18 12 21 -3 31 -13 8 -22 7 -37 -6z"/>
<path d="M790 2646 c0 -2 8 -10 18 -17 15 -13 16 -12 3 4 -13 16 -21 21 -21
13z"/>
<path d="M1808 2643 c12 -2 30 -2 40 0 9 3 -1 5 -23 4 -22 0 -30 -2 -17 -4z"/>
<path d="M1750 2629 c0 -5 5 -7 10 -4 6 3 10 8 10 11 0 2 -4 4 -10 4 -5 0 -10
-5 -10 -11z"/>
<path d="M1880 2632 c0 -5 14 -12 30 -16 36 -7 128 -90 136 -123 4 -12 10 -23
15 -23 13 0 12 2 -17 54 -14 25 -45 60 -68 76 -47 31 -96 48 -96 32z"/>
<path d="M5412 2618 c3 -7 18 -15 34 -18 20 -4 31 -13 38 -33 8 -23 6 -31 -19
-57 -36 -37 -70 -38 -107 -3 -34 33 -38 12 -3 -22 43 -44 95 -29 138 38 25 39
15 71 -27 91 -41 19 -59 20 -54 4z"/>
<path d="M5347 2602 c-25 -27 -20 -39 6 -15 12 11 29 23 37 26 10 4 9 6 -6 6
-11 1 -28 -7 -37 -17z"/>
<path d="M5882 2575 c0 -16 2 -22 5 -12 2 9 2 23 0 30 -3 6 -5 -1 -5 -18z"/>
<path d="M1715 2556 c-16 -8 -43 -28 -60 -45 -26 -28 -30 -40 -29 -84 1 -93
91 -234 175 -278 43 -21 49 -23 49 -10 0 5 -11 12 -25 15 -54 14 -138 123
-174 228 -16 46 -17 59 -6 85 15 36 59 72 97 80 16 3 28 9 28 14 0 12 -20 11
-55 -5z"/>
<path d="M1830 2567 c0 -4 19 -15 43 -25 52 -24 78 -51 117 -127 21 -40 29
-50 25 -30 -10 44 -56 114 -95 146 -32 26 -90 49 -90 36z"/>
<path d="M850 2553 c0 -6 8 -17 18 -24 16 -13 16 -13 2 6 -8 11 -16 22 -17 24
-2 2 -3 0 -3 -6z"/>
<path d="M661 2534 c-30 -22 -28 -78 4 -109 27 -28 66 -33 85 -10 16 19 17 79
1 98 -22 27 -66 37 -90 21z m30 -36 c1 -17 2 -19 6 -5 5 20 14 22 31 5 17 -17
15 -55 -4 -62 -34 -13 -79 42 -59 73 11 18 25 12 26 -11z"/>
<path d="M700 2461 c0 -5 5 -13 10 -16 6 -3 10 -2 10 4 0 5 -4 13 -10 16 -5 3
-10 2 -10 -4z"/>
<path d="M1808 2533 c6 -2 18 -2 25 0 6 3 1 5 -13 5 -14 0 -19 -2 -12 -5z"/>
<path d="M1875 2519 c23 -11 81 -93 88 -124 4 -19 5 -19 6 -1 3 49 -67 138
-106 135 -4 0 1 -5 12 -10z"/>
<path d="M5891 2519 c-1 -8 -14 -28 -30 -43 -36 -34 -35 -72 1 -99 22 -17 31
-18 61 -8 38 13 47 27 47 70 0 31 -16 51 -42 51 -10 0 -23 10 -28 23 -5 14 -9
16 -9 6z"/>
<path d="M1729 2503 c-13 -16 -12 -17 4 -4 9 7 17 15 17 17 0 8 -8 3 -21 -13z"/>
<path d="M880 2505 c0 -5 5 -17 10 -25 5 -8 10 -10 10 -5 0 6 -5 17 -10 25 -5
8 -10 11 -10 5z"/>
<path d="M1403 2488 c-25 -33 -25 -40 1 -23 14 9 23 21 20 26 -7 12 -10 11
-21 -3z"/>
<path d="M1840 2463 c19 -3 42 -10 50 -16 13 -10 13 -10 1 6 -9 11 -26 16 -50
15 l-36 -1 35 -4z"/>
<path d="M5560 2460 c-8 -5 -12 -12 -9 -15 4 -3 12 1 19 10 14 17 11 19 -10 5z"/>
<path d="M901 2444 c0 -11 3 -14 6 -6 3 7 2 16 -1 19 -3 4 -6 -2 -5 -13z"/>
<path d="M2060 2451 c0 -6 5 -13 10 -16 6 -3 10 1 10 9 0 9 -4 16 -10 16 -5 0
-10 -4 -10 -9z"/>
<path d="M5633 2440 c14 -11 28 -33 30 -48 l4 -27 2 28 c1 27 -28 67 -50 67
-7 0 0 -9 14 -20z"/>
<path d="M1760 2435 c-7 -9 -11 -17 -9 -20 3 -2 10 5 17 15 14 24 10 26 -8 5z"/>
<path d="M536 2405 c-40 -60 -2 -123 61 -101 39 13 42 75 7 111 -23 22 -50 18
-68 -10z m56 -12 c28 -26 21 -84 -8 -65 -6 4 -16 16 -23 27 -11 18 -12 17 -7
-10 5 -28 5 -28 -6 -7 -8 16 -8 29 0 47 14 29 19 31 44 8z"/>
<path d="M912 2390 c0 -19 2 -27 5 -17 2 9 2 25 0 35 -3 9 -5 1 -5 -18z"/>
<path d="M1787 2390 c-3 -11 -1 -23 4 -26 5 -3 9 6 9 20 0 31 -6 34 -13 6z"/>
<path d="M1742 2376 c-2 -35 30 -93 68 -123 56 -45 56 -33 -1 25 -42 43 -59
69 -62 93 -3 31 -4 32 -5 5z"/>
<path d="M1691 2365 c-1 -21 45 -104 76 -140 29 -33 75 -65 92 -65 10 0 5 7
-14 19 -55 34 -135 135 -148 187 -5 18 -5 18 -6 -1z"/>
<path d="M5501 2364 c0 -11 3 -14 6 -6 3 7 2 16 -1 19 -3 4 -6 -2 -5 -13z"/>
<path d="M1592 2350 c0 -14 2 -19 5 -12 2 6 2 18 0 25 -3 6 -5 1 -5 -13z"/>
<path d="M1972 2335 c0 -16 2 -22 5 -12 2 9 2 23 0 30 -3 6 -5 -1 -5 -18z"/>
<path d="M5631 2339 c-31 -25 -23 -33 9 -9 14 10 23 21 20 23 -3 3 -16 -3 -29
-14z"/>
<path d="M992 2325 c0 -16 2 -22 5 -12 2 9 2 23 0 30 -3 6 -5 -1 -5 -18z"/>
<path d="M1800 2342 c0 -15 51 -77 73 -89 12 -7 36 -12 52 -12 29 0 28 1 -10
14 -22 8 -57 32 -77 54 -21 22 -38 37 -38 33z"/>
<path d="M5516 2326 c3 -9 13 -16 22 -16 8 0 13 1 11 3 -2 1 -12 9 -22 16 -15
12 -17 12 -11 -3z"/>
<path d="M912 2305 c0 -16 2 -22 5 -12 2 9 2 23 0 30 -3 6 -5 -1 -5 -18z"/>
<path d="M5726 2292 c-8 -16 -22 -32 -30 -35 -12 -5 -10 -12 11 -34 l26 -28
29 27 28 26 -24 37 -25 36 -15 -29z m29 -47 c0 -10 -5 -20 -11 -22 -13 -4 -27
24 -18 38 9 15 29 4 29 -16z"/>
<path d="M420 2306 c0 -2 8 -10 18 -17 15 -13 16 -12 3 4 -13 16 -21 21 -21
13z"/>
<path d="M976 2275 c-9 -26 -7 -32 5 -12 6 10 9 21 6 23 -2 3 -7 -2 -11 -11z"/>
<path d="M1610 2275 c0 -5 5 -17 10 -25 5 -8 10 -10 10 -5 0 6 -5 17 -10 25
-5 8 -10 11 -10 5z"/>
<path d="M2005 2210 c-16 -17 -40 -33 -52 -36 -13 -4 -20 -10 -17 -15 3 -6 -6
-7 -23 -4 -27 5 -27 5 -5 -6 32 -17 83 9 110 55 12 20 20 36 19 36 -2 0 -16
-14 -32 -30z"/>
<path d="M1661 2185 c18 -28 44 -59 58 -70 21 -15 19 -11 -9 21 -19 22 -45 54
-58 70 -12 16 -8 6 9 -21z"/>
<path d="M1884 2211 c5 -8 56 -3 56 5 0 2 -14 4 -31 4 -16 0 -28 -4 -25 -9z"/>
<path d="M5786 2154 c-4 -9 2 -23 15 -33 19 -15 20 -18 5 -30 -14 -12 -19 -11
-30 4 -20 28 -30 0 -11 -29 l17 -25 33 34 34 34 -28 30 c-24 25 -30 28 -35 15z"/>
<path d="M580 2141 c0 -28 163 -55 197 -33 7 4 -17 6 -52 4 -38 -3 -71 0 -78
6 -20 17 -67 33 -67 23z"/>
<path d="M1870 2130 c0 -5 5 -10 11 -10 5 0 7 5 4 10 -3 6 -8 10 -11 10 -2 0
-4 -4 -4 -10z"/>
<path d="M5611 2112 c-7 -17 -19 -33 -27 -36 -11 -4 -10 -12 8 -41 l21 -37 36
36 c33 34 34 36 18 53 -10 10 -24 26 -31 37 -12 17 -13 17 -25 -12z m39 -52
c0 -13 -33 -21 -43 -11 -5 5 -6 19 -2 31 6 20 8 21 26 4 10 -9 19 -20 19 -24z"/>
<path d="M1738 2043 c7 -3 16 -2 19 1 4 3 -2 6 -13 5 -11 0 -14 -3 -6 -6z"/>
<path d="M2580 1805 c0 -5 5 -17 10 -25 5 -8 10 -10 10 -5 0 6 -5 17 -10 25
-5 8 -10 11 -10 5z"/>
<path d="M2291 1704 c0 -11 3 -14 6 -6 3 7 2 16 -1 19 -3 4 -6 -2 -5 -13z"/>
<path d="M4527 1693 c-59 -20 -131 -82 -160 -137 -33 -63 -31 -166 6 -228 31
-53 96 -110 150 -133 47 -19 149 -19 216 1 33 10 69 30 97 56 49 45 114 165
114 209 0 80 -67 171 -159 216 -69 34 -191 42 -264 16z m179 -27 c16 -1 41
-11 53 -23 13 -12 36 -25 51 -28 18 -4 32 -16 40 -36 8 -17 20 -29 31 -29 21
0 22 -2 24 -82 0 -31 -2 -55 -6 -52 -4 2 -5 -5 -2 -15 3 -13 -7 -32 -33 -58
-20 -21 -31 -29 -23 -17 8 11 0 5 -17 -13 -18 -19 -43 -36 -56 -38 -13 -3 -49
-13 -81 -23 -45 -15 -67 -17 -105 -11 -99 19 -138 45 -168 112 -10 23 -24 48
-31 55 -7 7 -13 25 -13 40 0 40 20 103 30 97 5 -3 12 5 15 17 10 33 45 68 85
86 40 18 126 32 155 25 11 -3 34 -5 51 -7z m100 -425 c-7 -11 -93 -41 -115
-41 -9 1 13 11 49 24 36 13 66 24 68 25 2 0 1 -3 -2 -8z"/>
<path d="M4516 1584 c-22 -22 -20 -41 9 -69 34 -35 82 -34 95 1 14 35 13 41
-10 64 -24 24 -72 26 -94 4z m79 -28 c20 -14 15 -46 -8 -46 -24 0 -51 26 -44
44 8 20 27 21 52 2z"/>
<path d="M4391 1514 c0 -11 3 -14 6 -6 3 7 2 16 -1 19 -3 4 -6 -2 -5 -13z"/>
<path d="M4647 1443 c-11 -11 -8 -58 5 -71 7 -7 24 -12 40 -12 35 0 52 28 38
64 -8 21 -16 26 -43 26 -19 0 -37 -3 -40 -7z m56 -27 c24 -19 21 -36 -7 -36
-29 0 -39 12 -30 34 7 19 14 20 37 2z"/>
<path d="M2670 1665 c13 -14 26 -25 28 -25 3 0 -5 11 -18 25 -13 14 -26 25
-28 25 -3 0 5 -11 18 -25z"/>
<path d="M2470 1666 c0 -2 8 -10 18 -17 15 -13 16 -12 3 4 -13 16 -21 21 -21
13z"/>
<path d="M2190 1653 c0 -14 58 -108 75 -123 9 -7 0 11 -19 41 -20 29 -36 59
-36 66 0 6 -4 15 -10 18 -5 3 -10 3 -10 -2z"/>
<path d="M2500 1627 c0 -2 15 -16 33 -33 l32 -29 -29 33 c-28 30 -36 37 -36
29z"/>
<path d="M2677 1619 c7 -7 15 -10 18 -7 3 3 -2 9 -12 12 -14 6 -15 5 -6 -5z"/>
<path d="M2733 1623 c4 -3 -11 -14 -33 -24 -58 -26 -49 -31 9 -6 45 18 59 37
29 37 -6 0 -8 -3 -5 -7z"/>
<path d="M1277 1549 c-3 -12 -3 -18 0 -15 9 9 34 -15 27 -26 -3 -5 -16 -2 -30
7 -29 19 -31 9 -4 -24 l20 -23 20 23 c24 29 24 29 1 57 -24 27 -27 27 -34 1z"/>
<path d="M2031 1544 c0 -11 3 -14 6 -6 3 7 2 16 -1 19 -3 4 -6 -2 -5 -13z"/>
<path d="M2130 1542 c0 -36 88 -152 116 -152 8 0 11 -6 7 -16 -5 -14 -3 -14
15 -3 21 13 21 13 -6 25 -35 15 -74 57 -106 114 -14 25 -26 39 -26 32z"/>
<path d="M1435 1528 c-4 -10 1 -29 14 -46 30 -42 11 -58 -26 -22 -18 17 -23
17 -33 5 -10 -12 -9 -15 4 -15 8 0 23 -11 32 -25 l17 -26 28 33 c22 26 25 35
15 43 -7 6 -20 24 -29 40 -13 25 -17 27 -22 13z"/>
<path d="M2001 1494 c0 -11 3 -14 6 -6 3 7 2 16 -1 19 -3 4 -6 -2 -5 -13z"/>
<path d="M2016 1475 c-8 -22 12 -71 25 -58 12 12 1 45 -13 37 -6 -4 -8 2 -3
15 7 24 0 29 -9 6z"/>
<path d="M2415 1460 c-3 -6 1 -7 9 -4 18 7 21 14 7 14 -6 0 -13 -4 -16 -10z"/>
<path d="M2380 1439 c0 -5 5 -7 10 -4 6 3 10 8 10 11 0 2 -4 4 -10 4 -5 0 -10
-5 -10 -11z"/>
<path d="M1745 1429 c-4 -6 -5 -12 -2 -15 2 -3 7 2 10 11 7 17 1 20 -8 4z"/>
<path d="M2087 1415 c12 -21 63 -73 63 -63 0 3 -17 23 -37 44 -20 21 -32 30
-26 19z"/>
<path d="M2980 1395 c-166 -34 -350 -81 -401 -103 -54 -23 -105 -65 -112 -92
-9 -33 29 -70 70 -70 45 0 143 31 143 46 0 6 -12 16 -26 23 -14 6 -24 15 -22
19 2 4 10 24 18 45 16 42 4 37 215 87 163 39 247 49 241 29 -2 -8 -7 -27 -10
-42 -4 -15 -11 -25 -16 -22 -6 3 -10 2 -10 -4 0 -5 -14 -12 -30 -16 -17 -4
-27 -11 -24 -17 4 -6 -2 -8 -16 -3 -15 5 -20 4 -16 -4 5 -7 1 -9 -8 -5 -9 3
-16 1 -16 -6 0 -6 -5 -8 -10 -5 -6 4 -16 3 -23 -2 -7 -5 -63 -31 -124 -58 -62
-26 -113 -52 -113 -57 0 -6 6 -8 13 -5 6 3 93 39 192 80 265 110 319 137 323
166 2 13 -2 28 -10 32 -22 15 -108 9 -228 -16z m184 -14 c7 -10 -22 -37 -30
-28 -9 8 3 37 15 37 5 0 12 -4 15 -9z m-534 -100 c0 -5 -11 -23 -25 -39 -14
-17 -25 -32 -25 -34 0 -3 19 -11 43 -18 l42 -13 -30 -13 c-64 -28 -155 -10
-155 31 0 18 41 52 90 74 51 23 60 25 60 12z"/>
<path d="M2045 1401 c-2 -5 16 -28 41 -51 38 -35 43 -44 33 -57 -8 -8 2 -6 24
7 20 12 37 24 37 27 0 2 -4 2 -9 -1 -5 -3 -27 7 -49 24 -22 16 -43 26 -47 22
-3 -3 -3 1 0 10 6 16 -20 34 -30 19z"/>
<path d="M2200 1340 c-9 -6 -10 -10 -3 -10 6 0 15 5 18 10 8 12 4 12 -15 0z"/>
<path d="M2000 1324 c8 -10 26 -29 40 -41 l25 -23 -22 -6 c-13 -3 -23 -10 -23
-15 0 -5 19 0 42 12 l42 21 -31 13 c-17 7 -34 18 -37 24 -4 6 -17 16 -29 23
-21 11 -21 10 -7 -8z"/>
<path d="M3980 730 c0 -5 5 -10 11 -10 5 0 7 5 4 10 -3 6 -8 10 -11 10 -2 0
-4 -4 -4 -10z"/>
<path d="M2730 660 c0 -6 2 -10 4 -10 2 0 20 -7 40 -15 48 -20 46 -12 -4 14
-22 11 -40 16 -40 11z"/>
<path d="M4240 642 c8 -5 26 -13 40 -16 17 -5 20 -4 10 2 -8 5 -26 13 -40 16
-17 5 -20 4 -10 -2z"/>
<path d="M2471 594 c-17 -14 -35 -42 -41 -62 -8 -31 -6 -44 13 -82 31 -63 85
-86 101 -43 5 13 4 14 -8 4 -32 -27 -96 46 -96 109 0 40 39 80 77 80 37 0 49
-9 68 -50 l16 -35 -6 35 c-12 69 -70 89 -124 44z"/>
<path d="M3700 600 c-135 -36 -622 -205 -598 -208 12 -1 63 11 112 28 50 16
93 30 97 30 4 0 9 -9 12 -20 6 -22 53 -48 65 -35 4 4 1 10 -7 13 -23 8 -54 44
-44 52 16 15 309 108 393 125 109 22 233 17 313 -14 55 -22 137 -86 137 -108
0 -6 -30 -20 -67 -32 -75 -23 -110 -41 -82 -41 9 0 32 6 50 14 19 8 53 17 77
21 38 6 42 5 42 -14 0 -12 5 -21 10 -21 6 0 10 10 10 21 0 21 3 22 77 15 42
-3 87 -13 101 -22 13 -8 26 -13 29 -10 13 13 -87 49 -149 54 -38 3 -68 9 -68
14 0 23 -86 98 -143 124 -55 25 -75 29 -177 31 -90 2 -132 -1 -190 -17z"/>
<path d="M4500 500 c46 -43 98 -75 107 -67 2 3 -16 17 -40 32 -25 14 -51 33
-58 41 -7 8 -22 20 -33 25 -12 6 -1 -9 24 -31z"/>
<path d="M1724 498 c-4 -7 -3 -8 5 -4 18 11 48 -3 54 -25 3 -11 1 -34 -4 -52
-8 -29 -7 -30 6 -13 18 24 20 77 3 94 -15 15 -55 16 -64 0z"/>
<path d="M2581 493 c-1 -6 -4 -20 -7 -30 -5 -17 -5 -17 6 0 6 10 9 23 6 30 -3
9 -5 9 -5 0z"/>
<path d="M2064 459 c-16 -17 -45 -39 -64 -49 -27 -15 -30 -19 -15 -20 23 0 89
51 105 81 15 27 8 24 -26 -12z"/>
<path d="M1680 434 c0 -3 5 -14 10 -25 16 -28 32 -23 18 6 -10 22 -28 35 -28
19z"/>
</g>
</svg>
